<?xml version="1.0" encoding="iso-8859-1"?>
<!-- Generator: Adobe Illustrator 21.1.0, SVG Export Plug-In . SVG Version: 6.00 Build 0)  -->
<svg version="1.1" id="Layer_1" xmlns="http://www.w3.org/2000/svg" xmlns:xlink="http://www.w3.org/1999/xlink" x="0px" y="0px"
	 viewBox="0 0 1280 1024" style="enable-background:new 0 0 1280 1024;" xml:space="preserve">
<g>
	<polygon style="fill:#4B5258;" points="211.847,290.548 29.045,163.108 29.045,612.28 211.847,485.885 	"/>
	<path style="fill:#4B5258;" d="M647.44,921.478L647.44,921.478h456.484c81.478,0,149.376-75.21,149.376-166.089V501.554
		L647.44,921.478z"/>
	<path style="fill:#4B5258;" d="M1253.3,161.019L159.618,919.389h1.045c5.223,1.045,11.49,1.045,17.758,1.045h382.319
		l691.516-479.465V161.019H1253.3z"/>
	<path style="fill:#4B5258;" d="M1253.3,102.522H28l233.987,161.911v186.981l134.752-92.968l243.389,169.223L1253.3,102.522z
		 M316.306,242.497l-130.573-90.879l918.192-18.802L316.306,242.497z M640.128,467.083l-219.363-152.51l696.739-160.866
		L640.128,467.083z"/>
	<path style="fill:#4B5258;" d="M396.739,417.987L30.089,672.866v1.045v90.879c2.089,48.051,24.026,89.835,54.318,120.128
		c5.223,5.223,11.49,10.446,18.803,15.669L597.3,557.962L396.739,417.987z"/>
</g>
<g>
</g>
<g>
</g>
<g>
</g>
<g>
</g>
<g>
</g>
<g>
</g>
<g>
</g>
<g>
</g>
<g>
</g>
<g>
</g>
<g>
</g>
<g>
</g>
<g>
</g>
<g>
</g>
<g>
</g>
</svg>
