<svg version="1.1" id="Layer_2" xmlns="http://www.w3.org/2000/svg" xmlns:xlink="http://www.w3.org/1999/xlink" x="0px" y="0px"
	 viewBox="-126 363 545.6 76" style="enable-background:new -126 363 545.6 76;" xml:space="preserve">
<style type="text/css">
	.st0{fill:#FFFFFF;}
</style>
<g>
	<g>
		<polygon class="st0" points="-108.4,379.8 -125.9,367.6 -125.9,410.6 -108.4,398.5"/>
		<path class="st0" d="M-66.7,440.2L-66.7,440.2H-23c7.8,0,14.3-7.2,14.3-15.9V400L-66.7,440.2z"/>
		<path class="st0" d="M-8.7,367.4l-104.7,72.6c0,0,0.1,0,0.1,0c0.5,0.1,1.1,0.1,1.7,0.1H-75l66.2-45.9V367.4z"/>
		<path class="st0" d="M-8.7,361.8l-117.3,0l22.4,15.5l0,17.9l12.9-8.9l23.3,16.2L-8.7,361.8z M-98.4,375.2l-12.5-8.7l87.9-1.8
			L-98.4,375.2z M-67.4,396.7l-21-14.6l66.7-15.4L-67.4,396.7z"/>
		<path class="st0" d="M-90.7,392l-35.1,24.4v0.1v8.7c0.2,4.6,2.3,8.6,5.2,11.5c0.5,0.5,1.1,1,1.8,1.5l47.3-32.8L-90.7,392z"/>
	</g>
	<g>
		<path class="st0" d="M17.7,401.3c0-15.7,11.9-26.4,27.2-26.4c11.3,0,17.8,6.1,21.4,12.5l-9.3,4.6c-2.1-4.1-6.7-7.4-12-7.4
			c-9.3,0-16,7.1-16,16.8c0,9.7,6.7,16.8,16,16.8c5.3,0,9.9-3.2,12-7.4l9.3,4.5c-3.7,6.4-10.1,12.6-21.4,12.6
			C29.6,427.7,17.7,417,17.7,401.3z"/>
		<path class="st0" d="M96.6,426.8v-4.7c-2.5,2.8-7,5.6-13,5.6c-8.1,0-12-4.4-12-11.6v-26.3h9.7v22.4c0,5.1,2.7,6.8,6.8,6.8
			c3.8,0,6.7-2.1,8.4-4.2v-25.1h9.7v37H96.6z"/>
		<path class="st0" d="M111.6,423.7l4.2-6.8c2.9,1.8,8.2,3.4,12.8,3.4c4.2,0,6.2-1.7,6.2-4c0-6.1-22-1.2-22-15.7
			c0-6.2,5.4-11.6,15.2-11.6c6.3,0,11.2,1.2,15.2,3.4l-4.7,6.2c-2.7-1.4-5.9-2.2-10.5-2.2c-3.5,0-5.8,1.6-5.8,3.7
			c0,5.5,21.9,0.9,21.9,15.9c0,6.7-5.7,11.9-16,11.9C121.7,427.7,116,426.5,111.6,423.7z"/>
		<path class="st0" d="M153.5,417.6v-18.1h-6.1v-2.8l12.8-17h3.1V391h7.5v8.5h-7.5V415c0,2.3,1.2,4.1,3.4,4.1c1.5,0,2.8-0.5,3.4-1.1
			l2.1,7.4c-1.5,1.3-4.1,2.4-8.1,2.4C157.1,427.7,153.5,424.2,153.5,417.6z"/>
		<path class="st0" d="M176.1,408.3c0-10.5,7.4-19.4,19.5-19.4c12.3,0,19.6,8.9,19.6,19.4c0,10.6-7.4,19.5-19.6,19.5
			C183.5,427.7,176.1,418.9,176.1,408.3z M205.2,408.3c0-5.7-3.4-10.7-9.5-10.7c-6.1,0-9.4,5-9.4,10.7c0,5.8,3.4,10.8,9.4,10.8
			C201.7,419.1,205.2,414.1,205.2,408.3z"/>
		<path class="st0" d="M266.5,426.8v-23.4c0-3.4-1.5-5.9-5.5-5.9c-3.4,0-6.3,2.3-7.7,4.3v25h-9.8v-23.4c0-3.4-1.5-5.9-5.5-5.9
			c-3.4,0-6.2,2.3-7.7,4.4v24.9h-9.7v-37h9.7v4.8c1.5-2.2,6.4-5.7,12.1-5.7c5.4,0,8.9,2.5,10.3,6.7c2.1-3.4,7-6.7,12.7-6.7
			c6.8,0,10.9,3.6,10.9,11.2v26.7H266.5z"/>
		<path class="st0" d="M281.6,408.3c0-10.7,7.9-19.4,19.2-19.4c11,0,18.5,8.3,18.5,20.4v2.1h-27.5c0.6,4.7,4.4,8.6,10.7,8.6
			c3.1,0,7.5-1.4,9.9-3.7l4.3,6.3c-3.7,3.4-9.5,5.1-15.2,5.1C290.1,427.7,281.6,420.2,281.6,408.3z M300.7,396.6
			c-6.1,0-8.7,4.5-9.1,8.2h18.2C309.6,401.3,307.2,396.6,300.7,396.6z"/>
		<path class="st0" d="M324.6,426.8v-37h9.7v5.1c2.6-3.3,7.2-6,11.8-6v9.5c-0.7-0.2-1.6-0.2-2.7-0.2c-3.2,0-7.5,1.8-9.1,4.2v24.4
			H324.6z"/>
		<path class="st0" d="M345.1,421.5c0-3.4,2.8-6.2,6.2-6.2c3.4,0,6.2,2.8,6.2,6.2c0,3.4-2.8,6.2-6.2,6.2
			C347.9,427.7,345.1,424.8,345.1,421.5z"/>
		<path class="st0" d="M364.5,380c0-3.2,2.7-5.7,5.8-5.7c3.2,0,5.8,2.5,5.8,5.7c0,3.2-2.6,5.8-5.8,5.8
			C367.2,385.8,364.5,383.2,364.5,380z M365.5,426.8v-37h9.7v37H365.5z"/>
		<path class="st0" d="M380.5,408.3c0-10.5,7.4-19.4,19.5-19.4c12.3,0,19.6,8.9,19.6,19.4c0,10.6-7.4,19.5-19.6,19.5
			C387.8,427.7,380.5,418.9,380.5,408.3z M409.5,408.3c0-5.7-3.4-10.7-9.5-10.7c-6.1,0-9.4,5-9.4,10.7c0,5.8,3.4,10.8,9.4,10.8
			C406.1,419.1,409.5,414.1,409.5,408.3z"/>
	</g>
</g>
</svg>
