<?xml version="1.0" standalone="no"?>
<!DOCTYPE svg PUBLIC "-//W3C//DTD SVG 20010904//EN"
 "http://www.w3.org/TR/2001/REC-SVG-20010904/DTD/svg10.dtd">
<svg version="1.0" xmlns="http://www.w3.org/2000/svg"
 width="16.000000pt" height="16.000000pt" viewBox="0 0 16.000000 16.000000"
 preserveAspectRatio="xMidYMid meet">
<metadata>
Created by potrace 1.11, written by Peter Selinger 2001-2013
</metadata>
<g transform="translate(0.000000,16.000000) scale(0.005333,-0.005333)"
fill="#000000" stroke="none">
<path d="M190 2376 c0 -2 110 -79 245 -172 l245 -169 0 -197 c0 -109 2 -198 5
-198 4 0 69 43 146 96 132 90 141 95 162 81 12 -8 130 -89 261 -180 l239 -166
46 32 c302 206 1248 861 1255 868 6 5 -506 9 -1297 9 -719 0 -1307 -2 -1307
-4z m2200 -73 c-14 -3 -377 -54 -808 -113 l-783 -109 -134 92 c-74 51 -134 95
-135 98 0 3 330 12 732 21 738 15 1174 19 1128 11z m95 -52 c-8 -7 -751 -495
-941 -617 l-50 -32 -233 161 c-129 89 -227 163 -220 166 29 10 1415 329 1434
330 11 1 15 -3 10 -8z"/>
<path d="M180 1771 l0 -482 148 102 c81 55 168 115 194 133 l48 31 -1 215 0
215 -174 120 c-96 66 -184 126 -195 134 -20 13 -20 12 -20 -468z"/>
<path d="M1642 1451 c-633 -438 -1157 -802 -1164 -809 -9 -9 84 -12 416 -12
l427 0 744 513 744 512 1 298 c0 163 -3 297 -7 296 -5 -1 -527 -360 -1161
-798z"/>
<path d="M566 1428 l-389 -271 5 -126 c4 -94 10 -139 26 -179 24 -63 93 -158
121 -167 15 -4 146 81 538 351 285 196 522 360 526 364 10 9 -406 300 -425
299 -7 0 -188 -123 -402 -271z"/>
<path d="M2156 1077 l-640 -442 500 -3 c334 -2 514 1 544 8 67 16 142 70 182
132 63 95 68 126 68 455 0 161 -3 293 -7 292 -5 0 -296 -199 -647 -442z"/>
</g>
</svg>
